<svg width="263" height="97" viewBox="0 0 263 97" fill="none" xmlns="http://www.w3.org/2000/svg">
<path d="M59.1406 73H40.5312V45.0625H19.0156V73H0.40625V4.46875H19.0156V29.875H40.5312V4.46875H59.1406V73ZM96.8281 18.9531C101.984 18.9531 106.438 19.8594 110.188 21.6719C113.938 23.4531 116.828 26.1406 118.859 29.7344C120.891 33.3281 121.906 37.8281 121.906 43.2344V51.3906H89.1406C89.2969 54.1719 90.3281 56.4531 92.2344 58.2344C94.1719 60.0156 97.0156 60.9062 100.766 60.9062C104.078 60.9062 107.109 60.5781 109.859 59.9219C112.641 59.2656 115.5 58.25 118.438 56.875V70.0469C115.875 71.3906 113.078 72.375 110.047 73C107.016 73.625 103.188 73.9375 98.5625 73.9375C93.2188 73.9375 88.4375 72.9844 84.2188 71.0781C80 69.1719 76.6719 66.2188 74.2344 62.2188C71.8281 58.2188 70.625 53.0781 70.625 46.7969C70.625 40.4219 71.7188 35.1875 73.9062 31.0938C76.0938 26.9688 79.1562 23.9219 83.0938 21.9531C87.0312 19.9531 91.6094 18.9531 96.8281 18.9531ZM97.4844 31.4219C95.3281 31.4219 93.5156 32.1094 92.0469 33.4844C90.6094 34.8281 89.7656 36.9531 89.5156 39.8594H105.266C105.234 38.2969 104.922 36.875 104.328 35.5938C103.734 34.3125 102.859 33.2969 101.703 32.5469C100.578 31.7969 99.1719 31.4219 97.4844 31.4219ZM150.594 73H132.266V0.0625H150.594V73ZM195.734 18.9531C201.609 18.9531 206.219 21.3125 209.562 26.0312C212.906 30.7188 214.578 37.4844 214.578 46.3281C214.578 52.3594 213.734 57.4375 212.047 61.5625C210.359 65.6562 208.047 68.75 205.109 70.8438C202.203 72.9062 198.891 73.9375 195.172 73.9375C192.672 73.9375 190.547 73.625 188.797 73C187.078 72.375 185.641 71.5938 184.484 70.6562C183.359 69.7188 182.406 68.7656 181.625 67.7969H181.062C181.219 69.0156 181.344 70.3281 181.438 71.7344C181.562 73.1406 181.625 74.7812 181.625 76.6562V96.0625H163.297V19.8906H178.203L180.781 26.6406H181.625C182.5 25.2656 183.562 24 184.812 22.8438C186.062 21.6562 187.578 20.7188 189.359 20.0312C191.172 19.3125 193.297 18.9531 195.734 18.9531ZM188.844 33.3438C187.062 33.3438 185.656 33.7656 184.625 34.6094C183.594 35.4531 182.844 36.7344 182.375 38.4531C181.938 40.1406 181.688 42.25 181.625 44.7812V46.2344C181.625 49.0469 181.844 51.4219 182.281 53.3594C182.719 55.2656 183.469 56.7188 184.531 57.7188C185.594 58.6875 187.062 59.1719 188.938 59.1719C190.469 59.1719 191.75 58.7344 192.781 57.8594C193.812 56.9844 194.594 55.5938 195.125 53.6875C195.656 51.7812 195.922 49.2656 195.922 46.1406C195.922 41.4844 195.312 38.1875 194.094 36.25C192.906 34.3125 191.156 33.3438 188.844 33.3438ZM257.141 18.9531C258.141 18.9531 259.188 19.0312 260.281 19.1875C261.375 19.3125 262.188 19.4219 262.719 19.5156L261.078 36.8125C260.484 36.6562 259.719 36.5312 258.781 36.4375C257.844 36.3125 256.531 36.25 254.844 36.25C253.688 36.25 252.453 36.3594 251.141 36.5781C249.828 36.7969 248.578 37.2656 247.391 37.9844C246.234 38.6719 245.281 39.7344 244.531 41.1719C243.781 42.5781 243.406 44.4844 243.406 46.8906V73H225.078V19.8906H238.719L241.578 28.375H242.469C243.438 26.625 244.672 25.0469 246.172 23.6406C247.703 22.2031 249.406 21.0625 251.281 20.2188C253.188 19.375 255.141 18.9531 257.141 18.9531Z" fill="black"/>
</svg>
