<svg width="218" height="62" viewBox="0 0 218 62" fill="none" xmlns="http://www.w3.org/2000/svg">
<rect width="218" height="62" />
<path d="M0.552 0.48H22.44C25.192 0.48 27.208 0.831999 28.488 1.536C29.832 2.176 30.696 3.2 31.08 4.608C31.528 5.952 31.752 7.64799 31.752 9.696V22.08C31.752 24.384 31.56 26.56 31.176 28.608C30.792 30.592 29.8 32.224 28.2 33.504C26.6 34.72 23.976 35.328 20.328 35.328H11.016V60H0.552V0.48ZM25.128 61.92L14.472 34.752L21.48 34.464L24.456 35.232L24.936 35.712L34.824 58.176L25.128 61.92ZM16.872 27.168C18.472 27.168 19.624 26.752 20.328 25.92C21.032 25.024 21.384 23.52 21.384 21.408V14.592C21.384 12.032 21.096 10.4 20.52 9.696C20.008 8.992 18.952 8.64 17.352 8.64H11.016V27.168H16.872ZM38.9895 0.48H68.3655V8.64H49.4535V23.232H66.3495L65.0055 31.392H49.4535V51.84H68.3655V60H38.9895V0.48ZM71.0805 60L83.4645 0.48H94.9845L107.273 60H96.4245L93.9285 47.136L95.6565 48.768H82.4085L83.8485 47.136L81.6405 60H71.0805ZM84.2325 41.664L83.2725 40.512H95.0805L93.7365 41.664L89.6085 14.496L89.5125 12.672H88.7445L88.6485 14.496L84.2325 41.664ZM111.646 0.48H134.59C137.598 0.48 139.614 1.184 140.638 2.592C141.662 4 142.174 6.208 142.174 9.216V51.168C142.174 54.24 141.662 56.48 140.638 57.888C139.678 59.296 137.63 60 134.494 60H111.646V0.48ZM128.062 51.84C129.598 51.84 130.59 51.488 131.038 50.784C131.486 50.08 131.71 49.024 131.71 47.616V12.768C131.71 11.36 131.454 10.336 130.942 9.696C130.494 8.992 129.662 8.64 128.446 8.64H122.014V51.84H128.062ZM148.771 0.48H178.147V8.64H159.235V23.232H176.131L174.787 31.392H159.235V51.84H178.147V60H148.771V0.48ZM183.646 0.48H205.534C208.286 0.48 210.302 0.831999 211.582 1.536C212.926 2.176 213.79 3.2 214.174 4.608C214.622 5.952 214.846 7.64799 214.846 9.696V22.08C214.846 24.384 214.654 26.56 214.27 28.608C213.886 30.592 212.894 32.224 211.294 33.504C209.694 34.72 207.07 35.328 203.422 35.328H194.11V60H183.646V0.48ZM208.222 61.92L197.566 34.752L204.574 34.464L207.55 35.232L208.03 35.712L217.918 58.176L208.222 61.92ZM199.966 27.168C201.566 27.168 202.718 26.752 203.422 25.92C204.126 25.024 204.478 23.52 204.478 21.408V14.592C204.478 12.032 204.19 10.4 203.614 9.696C203.102 8.992 202.046 8.64 200.446 8.64H194.11V27.168H199.966Z" fill="black"/>
</svg>
