<svg width="299" height="103" viewBox="0 0 299 103" fill="none" xmlns="http://www.w3.org/2000/svg">
<rect width="299" height="103" fill="#1E1E1E"/>
<path d="M59.1406 79H40.5312V51.0625H19.0156V79H0.40625V10.4688H19.0156V35.875H40.5312V10.4688H59.1406V79ZM96.8281 24.9531C101.984 24.9531 106.438 25.8594 110.188 27.6719C113.938 29.4531 116.828 32.1406 118.859 35.7344C120.891 39.3281 121.906 43.8281 121.906 49.2344V57.3906H89.1406C89.2969 60.1719 90.3281 62.4531 92.2344 64.2344C94.1719 66.0156 97.0156 66.9062 100.766 66.9062C104.078 66.9062 107.109 66.5781 109.859 65.9219C112.641 65.2656 115.5 64.25 118.438 62.875V76.0469C115.875 77.3906 113.078 78.375 110.047 79C107.016 79.625 103.188 79.9375 98.5625 79.9375C93.2188 79.9375 88.4375 78.9844 84.2188 77.0781C80 75.1719 76.6719 72.2188 74.2344 68.2188C71.8281 64.2188 70.625 59.0781 70.625 52.7969C70.625 46.4219 71.7188 41.1875 73.9062 37.0938C76.0938 32.9688 79.1562 29.9219 83.0938 27.9531C87.0312 25.9531 91.6094 24.9531 96.8281 24.9531ZM97.4844 37.4219C95.3281 37.4219 93.5156 38.1094 92.0469 39.4844C90.6094 40.8281 89.7656 42.9531 89.5156 45.8594H105.266C105.234 44.2969 104.922 42.875 104.328 41.5938C103.734 40.3125 102.859 39.2969 101.703 38.5469C100.578 37.7969 99.1719 37.4219 97.4844 37.4219ZM150.594 79H132.266V6.0625H150.594V79ZM195.734 24.9531C201.609 24.9531 206.219 27.3125 209.562 32.0312C212.906 36.7188 214.578 43.4844 214.578 52.3281C214.578 58.3594 213.734 63.4375 212.047 67.5625C210.359 71.6562 208.047 74.75 205.109 76.8438C202.203 78.9062 198.891 79.9375 195.172 79.9375C192.672 79.9375 190.547 79.625 188.797 79C187.078 78.375 185.641 77.5938 184.484 76.6562C183.359 75.7188 182.406 74.7656 181.625 73.7969H181.062C181.219 75.0156 181.344 76.3281 181.438 77.7344C181.562 79.1406 181.625 80.7812 181.625 82.6562V102.062H163.297V25.8906H178.203L180.781 32.6406H181.625C182.5 31.2656 183.562 30 184.812 28.8438C186.062 27.6562 187.578 26.7188 189.359 26.0312C191.172 25.3125 193.297 24.9531 195.734 24.9531ZM188.844 39.3438C187.062 39.3438 185.656 39.7656 184.625 40.6094C183.594 41.4531 182.844 42.7344 182.375 44.4531C181.938 46.1406 181.688 48.25 181.625 50.7812V52.2344C181.625 55.0469 181.844 57.4219 182.281 59.3594C182.719 61.2656 183.469 62.7188 184.531 63.7188C185.594 64.6875 187.062 65.1719 188.938 65.1719C190.469 65.1719 191.75 64.7344 192.781 63.8594C193.812 62.9844 194.594 61.5938 195.125 59.6875C195.656 57.7812 195.922 55.2656 195.922 52.1406C195.922 47.4844 195.312 44.1875 194.094 42.25C192.906 40.3125 191.156 39.3438 188.844 39.3438ZM257.141 24.9531C258.141 24.9531 259.188 25.0312 260.281 25.1875C261.375 25.3125 262.188 25.4219 262.719 25.5156L261.078 42.8125C260.484 42.6562 259.719 42.5312 258.781 42.4375C257.844 42.3125 256.531 42.25 254.844 42.25C253.688 42.25 252.453 42.3594 251.141 42.5781C249.828 42.7969 248.578 43.2656 247.391 43.9844C246.234 44.6719 245.281 45.7344 244.531 47.1719C243.781 48.5781 243.406 50.4844 243.406 52.8906V79H225.078V25.8906H238.719L241.578 34.375H242.469C243.438 32.625 244.672 31.0469 246.172 29.6406C247.703 28.2031 249.406 27.0625 251.281 26.2188C253.188 25.375 255.141 24.9531 257.141 24.9531Z" fill="black"/>
<path d="M278.917 26.9167C285.544 26.9167 290.917 21.5441 290.917 14.9167C290.917 8.28925 285.544 2.91667 278.917 2.91667C272.289 2.91667 266.917 8.28925 266.917 14.9167C266.917 21.5441 272.289 26.9167 278.917 26.9167Z" stroke="black" stroke-width="2" stroke-linecap="round" stroke-linejoin="round"/>
<path d="M276.517 19.1167V14.9167M276.517 14.9167V10.7167H278.917C280.717 10.7167 281.317 11.9167 281.317 12.8167C281.317 13.7167 280.717 14.9167 278.917 14.9167H278.317M276.517 14.9167H278.317M278.317 14.9167L281.317 19.1167" stroke="black" stroke-width="2" stroke-linecap="round" stroke-linejoin="round"/>
</svg>
